#Comment line ignore any data following # character 
#Hierarchical Translation and Rotation (.htr) file 
[Header]	
#Header keywords are followed by a single value 
FileType HTR		#Single word string
DataType HTRS		#Translation followed by rotation and scale data
FileVersion 1		#integer
NumSegments 84		#integer
NumFrames 2		#integer
DataFrameRate 30		#integer, data frame rate in this file
EulerRotationOrder ZYX
CalibrationUnits mm
RotationUnits Degrees
GlobalAxisofGravity Y
BoneLengthAxis Y
ScaleFactor 1.00
[SegmentNames&Hierarchy]
#CHILD	PARENT
MASTER GLOBAL
root MASTER
chest root
L_mid_tent01 root
R_mid_tent01 root
spine01 root
Bip01_Neck chest
L_humerus chest
R_humerus chest
weapon_bone chest
Bip01_Head Bip01_Neck
eye_left_bone Bip01_Head
eye_right_bone Bip01_Head
L_forearm L_humerus
L_front_hand L_forearm
L_weapon_bone L_forearm
L_front_hand01_01 L_front_hand
L_front_hand02_01 L_front_hand
L_front_hand03_01 L_front_hand
L_front_hand01_02 L_front_hand01_01
L_front_hand02_02 L_front_hand02_01
L_front_hand03_02 L_front_hand03_01
R_forearm R_humerus
R_front_hand R_forearm
R_weapon_bone R_forearm
R_front_hand01_01 R_front_hand
R_front_hand02_01 R_front_hand
R_front_hand03_01 R_front_hand
R_front_hand01_02 R_front_hand01_01
R_front_hand02_02 R_front_hand02_01
R_front_hand03_02 R_front_hand03_01
null_rope01_connect L_mid_tent01
Rope1_Seg01 null_rope01_connect
Rope1_Seg02 Rope1_Seg01
Rope1_Seg03 Rope1_Seg02
Rope1_Seg04 Rope1_Seg03
Rope1_Seg05 Rope1_Seg04
Rope1_Seg06 Rope1_Seg05
Rope1_Seg07 Rope1_Seg06
Rope1_Seg09 Rope1_Seg07
L_mid_hand01 Rope1_Seg09
L_mid_hand02 Rope1_Seg09
L_mid_hand03 Rope1_Seg09
null_rope02_connect R_mid_tent01
Rope2_Seg01 null_rope02_connect
Rope2_Seg02 Rope2_Seg01
Rope2_Seg03 Rope2_Seg02
Rope2_Seg04 Rope2_Seg03
Rope2_Seg05 Rope2_Seg04
Rope2_Seg06 Rope2_Seg05
Rope2_Seg07 Rope2_Seg06
Rope2_Seg09 Rope2_Seg07
R_mid_hand01 Rope2_Seg09
R_mid_hand02 Rope2_Seg09
R_mid_hand03 Rope2_Seg09
spine02 spine01
spine03 spine02
pelvis spine03
null_rope03_connect pelvis
null_rope04_connect pelvis
Rope3_Seg01 null_rope03_connect
Rope3_Seg02 Rope3_Seg01
Rope3_Seg03 Rope3_Seg02
Rope3_Seg04 Rope3_Seg03
Rope3_Seg05 Rope3_Seg04
Rope3_Seg06 Rope3_Seg05
Rope3_Seg07 Rope3_Seg06
Rope3_Seg08 Rope3_Seg07
Rope3_Seg09 Rope3_Seg08
R_rear_hand01 Rope3_Seg09
R_rear_hand02 Rope3_Seg09
R_rear_hand03 Rope3_Seg09
Rope4_Seg01 null_rope04_connect
Rope4_Seg02 Rope4_Seg01
Rope4_Seg03 Rope4_Seg02
Rope4_Seg04 Rope4_Seg03
Rope4_Seg05 Rope4_Seg04
Rope4_Seg06 Rope4_Seg05
Rope4_Seg07 Rope4_Seg06
Rope4_Seg08 Rope4_Seg07
Rope4_Seg09 Rope4_Seg08
L_rear_hand01 Rope4_Seg09
L_rear_hand02 Rope4_Seg09
L_rear_hand03 Rope4_Seg09
[BasePosition]
#SegmentName Tx, Ty, Tz, Rx, Ry, Rz, BoneLength
MASTER 0.000000 0.000000 0.000000 -90.000000 0.000000 0.000000 10.000000 
root 0.000000 0.000000 0.000000 0.000000 0.000000 0.000000 10.000000 
chest 0.000000 0.000000 0.000000 0.000000 0.000000 0.000000 10.000000 
L_mid_tent01 0.000000 0.000000 0.000000 0.000000 0.000000 0.000000 10.000000 
R_mid_tent01 0.000000 0.000000 0.000000 0.000000 0.000000 0.000000 10.000000 
spine01 0.000000 0.000000 0.000000 0.000000 0.000000 0.000000 10.000000 
Bip01_Neck 0.000000 0.000000 0.000000 0.000000 0.000000 0.000000 10.000000 
L_humerus 0.000000 0.000000 0.000000 0.000000 0.000000 0.000000 10.000000 
R_humerus 0.000000 0.000000 0.000000 0.000000 0.000000 0.000000 10.000000 
weapon_bone 0.000000 0.000000 0.000000 0.000000 0.000000 0.000000 10.000000 
Bip01_Head 0.000000 0.000000 0.000000 0.000000 0.000000 0.000000 10.000000 
eye_left_bone 0.000000 0.000000 0.000000 0.000000 0.000000 0.000000 10.000000 
eye_right_bone 0.000000 0.000000 0.000000 0.000000 0.000000 0.000000 10.000000 
L_forearm 0.000000 0.000000 0.000000 0.000000 0.000000 0.000000 10.000000 
L_front_hand 0.000000 0.000000 0.000000 0.000000 0.000000 0.000000 10.000000 
L_weapon_bone 0.000000 0.000000 0.000000 0.000000 0.000000 0.000000 10.000000 
L_front_hand01_01 0.000000 0.000000 0.000000 0.000000 0.000000 0.000000 10.000000 
L_front_hand02_01 0.000000 0.000000 0.000000 0.000000 0.000000 0.000000 10.000000 
L_front_hand03_01 0.000000 0.000000 0.000000 0.000000 0.000000 0.000000 10.000000 
L_front_hand01_02 0.000000 0.000000 0.000000 0.000000 0.000000 0.000000 10.000000 
L_front_hand02_02 0.000000 0.000000 0.000000 0.000000 0.000000 0.000000 10.000000 
L_front_hand03_02 0.000000 0.000000 0.000000 0.000000 0.000000 0.000000 10.000000 
R_forearm 0.000000 0.000000 0.000000 0.000000 0.000000 0.000000 10.000000 
R_front_hand 0.000000 0.000000 0.000000 0.000000 0.000000 0.000000 10.000000 
R_weapon_bone 0.000000 0.000000 0.000000 0.000000 0.000000 0.000000 10.000000 
R_front_hand01_01 0.000000 0.000000 0.000000 0.000000 0.000000 0.000000 10.000000 
R_front_hand02_01 0.000000 0.000000 0.000000 0.000000 0.000000 0.000000 10.000000 
R_front_hand03_01 0.000000 0.000000 0.000000 0.000000 0.000000 0.000000 10.000000 
R_front_hand01_02 0.000000 0.000000 0.000000 0.000000 0.000000 0.000000 10.000000 
R_front_hand02_02 0.000000 0.000000 0.000000 0.000000 0.000000 0.000000 10.000000 
R_front_hand03_02 0.000000 0.000000 0.000000 0.000000 0.000000 0.000000 10.000000 
null_rope01_connect 0.000000 0.000000 0.000000 0.000000 0.000000 0.000000 10.000000 
Rope1_Seg01 0.000000 0.000000 0.000000 0.000000 0.000000 0.000000 10.000000 
Rope1_Seg02 0.000000 0.000000 0.000000 0.000000 0.000000 0.000000 10.000000 
Rope1_Seg03 0.000000 0.000000 0.000000 0.000000 0.000000 0.000000 10.000000 
Rope1_Seg04 0.000000 0.000000 0.000000 0.000000 0.000000 0.000000 10.000000 
Rope1_Seg05 0.000000 0.000000 0.000000 0.000000 0.000000 0.000000 10.000000 
Rope1_Seg06 0.000000 0.000000 0.000000 0.000000 0.000000 0.000000 10.000000 
Rope1_Seg07 0.000000 0.000000 0.000000 0.000000 0.000000 0.000000 10.000000 
Rope1_Seg09 0.000000 0.000000 0.000000 0.000000 0.000000 0.000000 10.000000 
L_mid_hand01 0.000000 0.000000 0.000000 0.000000 0.000000 0.000000 10.000000 
L_mid_hand02 0.000000 0.000000 0.000000 0.000000 0.000000 0.000000 10.000000 
L_mid_hand03 0.000000 0.000000 0.000000 0.000000 0.000000 0.000000 10.000000 
null_rope02_connect 0.000000 0.000000 0.000000 0.000000 0.000000 0.000000 10.000000 
Rope2_Seg01 0.000000 0.000000 0.000000 0.000000 0.000000 0.000000 10.000000 
Rope2_Seg02 0.000000 0.000000 0.000000 0.000000 0.000000 0.000000 10.000000 
Rope2_Seg03 0.000000 0.000000 0.000000 0.000000 0.000000 0.000000 10.000000 
Rope2_Seg04 0.000000 0.000000 0.000000 0.000000 0.000000 0.000000 10.000000 
Rope2_Seg05 0.000000 0.000000 0.000000 0.000000 0.000000 0.000000 10.000000 
Rope2_Seg06 0.000000 0.000000 0.000000 0.000000 0.000000 0.000000 10.000000 
Rope2_Seg07 0.000000 0.000000 0.000000 0.000000 0.000000 0.000000 10.000000 
Rope2_Seg09 0.000000 0.000000 0.000000 0.000000 0.000000 0.000000 10.000000 
R_mid_hand01 0.000000 0.000000 0.000000 0.000000 0.000000 0.000000 10.000000 
R_mid_hand02 0.000000 0.000000 0.000000 0.000000 0.000000 0.000000 10.000000 
R_mid_hand03 0.000000 0.000000 0.000000 0.000000 0.000000 0.000000 10.000000 
spine02 0.000000 0.000000 0.000000 0.000000 0.000000 0.000000 10.000000 
spine03 0.000000 0.000000 0.000000 0.000000 0.000000 0.000000 10.000000 
pelvis 0.000000 0.000000 0.000000 0.000000 0.000000 0.000000 10.000000 
null_rope03_connect 0.000000 0.000000 0.000000 0.000000 0.000000 0.000000 10.000000 
null_rope04_connect 0.000000 0.000000 0.000000 0.000000 0.000000 0.000000 10.000000 
Rope3_Seg01 0.000000 0.000000 0.000000 0.000000 0.000000 0.000000 10.000000 
Rope3_Seg02 0.000000 0.000000 0.000000 0.000000 0.000000 0.000000 10.000000 
Rope3_Seg03 0.000000 0.000000 0.000000 0.000000 0.000000 0.000000 10.000000 
Rope3_Seg04 0.000000 0.000000 0.000000 0.000000 0.000000 0.000000 10.000000 
Rope3_Seg05 0.000000 0.000000 0.000000 0.000000 0.000000 0.000000 10.000000 
Rope3_Seg06 0.000000 0.000000 0.000000 0.000000 0.000000 0.000000 10.000000 
Rope3_Seg07 0.000000 0.000000 0.000000 0.000000 0.000000 0.000000 10.000000 
Rope3_Seg08 0.000000 0.000000 0.000000 0.000000 0.000000 0.000000 10.000000 
Rope3_Seg09 0.000000 0.000000 0.000000 0.000000 0.000000 0.000000 10.000000 
R_rear_hand01 0.000000 0.000000 0.000000 0.000000 0.000000 0.000000 10.000000 
R_rear_hand02 0.000000 0.000000 0.000000 0.000000 0.000000 0.000000 10.000000 
R_rear_hand03 0.000000 0.000000 0.000000 0.000000 0.000000 0.000000 10.000000 
Rope4_Seg01 0.000000 0.000000 0.000000 0.000000 0.000000 0.000000 10.000000 
Rope4_Seg02 0.000000 0.000000 0.000000 0.000000 0.000000 0.000000 10.000000 
Rope4_Seg03 0.000000 0.000000 0.000000 0.000000 0.000000 0.000000 10.000000 
Rope4_Seg04 0.000000 0.000000 0.000000 0.000000 0.000000 0.000000 10.000000 
Rope4_Seg05 0.000000 0.000000 0.000000 0.000000 0.000000 0.000000 10.000000 
Rope4_Seg06 0.000000 0.000000 0.000000 0.000000 0.000000 0.000000 10.000000 
Rope4_Seg07 0.000000 0.000000 0.000000 0.000000 0.000000 0.000000 10.000000 
Rope4_Seg08 0.000000 0.000000 0.000000 0.000000 0.000000 0.000000 10.000000 
Rope4_Seg09 0.000000 0.000000 0.000000 0.000000 0.000000 0.000000 10.000000 
L_rear_hand01 0.000000 0.000000 0.000000 0.000000 0.000000 0.000000 10.000000 
L_rear_hand02 0.000000 0.000000 0.000000 0.000000 0.000000 0.000000 10.000000 
L_rear_hand03 0.000000 0.000000 0.000000 0.000000 0.000000 0.000000 10.000000 
#Beginning of Data. Separated by tabs
#Fr	Tx	Ty	Tz	Rx	Ry	Rz	SF
[MASTER]
28 0.000000 0.000000 0.000000 0.001660 0.001660 0.001660 0.000000
29 0.000000 0.000000 0.000000 0.001660 0.001660 0.001660 0.000000
[root]
28 -60.218937 126.804024 1551.407715 -91.706612 -30.512268 -66.546112 1557.745605
29 -38.329880 67.769577 1501.772583 -91.711243 -25.410612 -75.853249 1503.789429
[chest]
28 -84.512650 -34.090519 0.000000 -4.148560 1.017890 174.916656 91.129311
29 -84.512650 -34.090519 0.000000 -3.419250 0.625224 172.607040 91.129311
[L_mid_tent01]
28 27.299099 22.179121 -249.918945 -21.822456 24.982731 16.895117 252.381912
29 27.299099 22.179115 -249.918945 -21.538277 20.503895 15.434524 252.381927
[R_mid_tent01]
28 23.228794 24.509907 226.238495 -173.515869 -17.115669 39.290966 228.744751
29 23.228794 24.509907 226.238495 -170.745544 -18.209766 34.318604 228.744751
[spine01]
28 -0.361383 -0.195265 0.000000 -0.007406 -0.003581 22.100565 0.410763
29 -0.361383 -0.195265 0.000000 -0.003853 -0.002596 22.072004 0.410763
[Bip01_Neck]
28 165.484543 71.581718 0.000119 175.896118 1.177290 24.871183 180.302734
29 165.484543 71.581718 0.000119 175.896118 1.177290 24.871183 180.302734
[L_humerus]
28 -13.983130 -135.272980 -120.471481 -5.437320 68.602486 84.616852 181.680161
29 -13.983130 -135.272980 -120.471481 -5.451009 68.746590 84.601181 181.680161
[R_humerus]
28 -13.983309 -135.273102 125.287651 -109.371582 -83.766212 -161.513397 184.909012
29 -13.983309 -135.273102 125.287651 -5.547442 -84.872833 96.914581 184.909012
[weapon_bone]
28 235.964890 -300.705902 0.000000 0.000000 -89.951546 -128.212341 382.234833
29 235.964890 -300.705902 0.000000 0.000000 -89.951546 -128.212341 382.234833
[Bip01_Head]
28 246.519379 162.556076 -8.387324 -16.480268 8.703037 -59.709999 295.409271
29 250.626328 147.720016 -7.616807 -7.174173 7.284354 -61.075298 291.020233
[eye_left_bone]
28 -0.346588 120.406540 -57.963600 0.000000 -90.000000 -99.840431 133.632462
29 -0.600628 120.459343 -58.034752 0.000000 -90.000000 -99.840431 133.711807
[eye_right_bone]
28 -0.341934 120.404701 71.136696 0.000000 -89.965736 80.156380 139.849335
29 -0.596050 120.457603 71.065498 0.000000 -89.965736 80.156380 139.859558
[L_forearm]
28 322.776093 0.000000 -0.000119 0.000398 -0.002313 -109.529007 322.776093
29 322.776093 0.000000 -0.000119 0.000397 -0.002313 -109.480553 322.776093
[L_front_hand]
28 241.149185 -0.042021 -3.300071 -178.667953 -1.835447 -27.422350 241.171753
29 241.149185 -0.042021 -3.300071 -178.667953 -1.835447 -27.422350 241.171753
[L_weapon_bone]
28 156.183838 0.000000 0.000000 0.000014 0.000007 0.000001 156.183838
29 156.183838 0.000000 0.000000 0.000014 0.000007 0.000001 156.183838
[L_front_hand01_01]
28 86.095154 20.947098 -0.655860 -0.366594 -0.477154 75.385574 88.609184
29 86.095154 20.947098 -0.655860 -0.366594 -0.477154 75.385574 88.609184
[L_front_hand02_01]
28 86.935165 -11.437475 24.513514 154.403519 -59.888931 -61.371990 91.046425
29 86.935165 -11.437475 24.513514 154.403519 -59.888931 -61.371990 91.046425
[L_front_hand03_01]
28 86.637497 -14.123976 -20.424902 -153.913849 58.118122 -62.702866 90.126129
29 86.637497 -14.123976 -20.424902 -153.913849 58.118122 -62.702866 90.126129
[L_front_hand01_02]
28 71.020905 -0.000179 0.000030 0.000334 -0.002323 -106.379684 71.020905
29 71.020905 -0.000179 0.000030 0.000334 -0.002323 -106.379684 71.020905
[L_front_hand02_02]
28 71.020927 -0.000119 0.000060 0.000334 -0.002323 -106.379684 71.020927
29 71.020927 -0.000119 0.000060 0.000334 -0.002323 -106.379684 71.020927
[L_front_hand03_02]
28 71.020905 -0.000060 0.000060 0.000334 -0.002323 -106.379684 71.020905
29 71.020905 -0.000060 0.000060 0.000334 -0.002323 -106.379684 71.020905
[R_forearm]
28 322.776428 -0.000060 0.000030 0.203698 0.056488 -107.069748 322.776428
29 322.776428 -0.000060 0.000030 0.203870 0.055864 -106.718826 322.776428
[R_front_hand]
28 238.847015 -0.006795 2.210259 17.645237 7.426517 -43.583981 238.857239
29 238.847015 -0.006795 2.210259 10.305852 5.202787 -46.370102 238.857239
[R_weapon_bone]
28 155.664093 0.002503 -0.000030 0.003487 0.001180 -90.988930 155.664078
29 155.664093 0.002503 -0.000030 0.003487 0.001180 -90.988930 155.664078
[R_front_hand01_01]
28 87.624611 14.231146 22.918642 -154.633514 -59.950634 61.746063 91.683487
29 87.624611 14.231146 22.918642 -154.633499 -59.950634 61.746063 91.683487
[R_front_hand02_01]
28 89.356956 14.367283 -19.491137 154.602661 58.302849 63.744389 92.579636
29 89.356956 14.367283 -19.491137 154.602661 58.302849 63.744389 92.579636
[R_front_hand03_01]
28 87.286232 -22.307278 -0.143439 0.162155 -0.423168 -75.767921 90.091743
29 87.286232 -22.307278 -0.143439 0.162155 -0.423168 -75.767921 90.091743
[R_front_hand01_02]
28 71.020905 0.000060 0.000119 0.002323 -0.000334 106.381714 71.020905
29 71.020905 0.000060 0.000119 0.002323 -0.000334 106.381714 71.020905
[R_front_hand02_02]
28 71.020844 -0.000030 -0.000119 0.002323 -0.000334 106.381714 71.020836
29 71.020844 -0.000030 -0.000119 0.002323 -0.000334 106.381714 71.020836
[R_front_hand03_02]
28 71.020905 0.000000 0.000030 0.002323 -0.000334 106.381714 71.020905
29 71.020905 0.000000 0.000030 0.002323 -0.000334 106.381714 71.020905
[null_rope01_connect]
28 328.732483 0.000000 -0.000238 -158.854568 -71.859917 -98.584648 328.732483
29 328.732483 0.000000 -0.000238 -152.094299 -68.175728 -109.221313 328.732483
[Rope1_Seg01]
28 0.000065 -0.000041 0.000137 27.192822 -5.032154 -108.091095 0.000157
29 0.000069 -0.000040 0.000142 35.499847 -1.695735 -113.777916 0.000163
[Rope1_Seg02]
28 139.999863 -0.000179 0.000000 7.548029 4.205273 -9.702480 139.999863
29 139.999863 -0.000179 0.000000 6.041391 2.177113 -6.068289 139.999863
[Rope1_Seg03]
28 139.999924 0.000060 -0.000060 24.424259 3.156926 -11.603612 139.999924
29 139.999924 0.000060 -0.000060 9.859453 1.862876 -6.240394 139.999924
[Rope1_Seg04]
28 139.999924 -0.000060 -0.000119 69.152260 -2.194546 -13.214942 139.999924
29 139.999924 -0.000060 -0.000119 22.041254 1.028932 -7.028244 139.999924
[Rope1_Seg05]
28 139.999832 0.000119 -0.000060 34.990303 -13.617066 -3.447733 139.999832
29 139.999832 0.000119 -0.000060 65.529381 -6.834910 -11.852938 139.999832
[Rope1_Seg06]
28 139.999954 0.000119 -0.000060 6.691861 -7.148395 2.626327 139.999954
29 139.999954 0.000119 -0.000060 15.742625 -9.376664 1.167111 139.999954
[Rope1_Seg07]
28 139.999985 0.000060 0.000000 2.371099 -3.800142 1.982077 139.999985
29 139.999985 0.000060 0.000000 4.783370 -4.935612 1.896224 139.999985
[Rope1_Seg09]
28 121.602913 0.000119 -0.000089 -89.793175 -1.359789 0.847147 121.602913
29 121.602913 0.000119 -0.000089 -89.793175 -1.359789 0.847147 121.602913
[L_mid_hand01]
28 103.859421 1.038730 8.195221 114.520287 -53.310486 -20.623234 104.187431
29 103.859421 1.038730 8.195221 114.520287 -53.310486 -20.623234 104.187431
[L_mid_hand02]
28 105.572853 -4.139662 -10.864139 -155.067673 38.166626 -52.448818 106.211075
29 105.572853 -4.139662 -10.864139 -155.067673 38.166626 -52.448818 106.211075
[L_mid_hand03]
28 104.641464 17.579376 -3.913581 -10.970130 15.317461 57.626949 106.179977
29 104.641464 17.579376 -3.913581 -10.970130 15.317461 57.626949 106.179977
[null_rope02_connect]
28 328.732849 0.000179 -0.000119 -102.047081 50.874435 -0.513669 328.732849
29 328.732849 0.000179 -0.000119 -110.256004 58.451118 -8.371923 328.732849
[Rope2_Seg01]
28 0.000095 0.000153 0.000069 139.307236 25.375170 -56.000080 0.000193
29 0.000095 0.000153 0.000071 127.007492 23.797466 -60.844086 0.000194
[Rope2_Seg02]
28 139.999741 -0.000060 -0.000119 1.759448 8.510181 -4.049494 139.999756
29 139.999741 -0.000060 -0.000119 -19.204021 8.894489 -0.293528 139.999756
[Rope2_Seg03]
28 140.000107 0.000030 0.000000 174.877167 11.704864 -6.099715 140.000107
29 140.000107 0.000030 0.000000 -71.506866 9.992772 3.412616 140.000107
[Rope2_Seg04]
28 139.999802 0.000000 -0.000060 3.404274 -17.284861 5.753130 139.999802
29 139.999802 0.000000 -0.000060 -38.435863 -0.940087 12.150897 139.999802
[Rope2_Seg05]
28 139.999985 -0.000060 0.000119 -3.765870 -12.478155 8.254716 139.999985
29 139.999985 -0.000060 0.000119 -14.777017 -3.151633 8.334155 139.999985
[Rope2_Seg06]
28 139.999893 -0.000030 -0.000119 -5.428455 -6.550860 9.049397 139.999893
29 139.999893 -0.000030 -0.000119 -9.516364 -1.438706 6.094782 139.999893
[Rope2_Seg07]
28 139.999893 0.000060 -0.000060 -2.251214 -6.914690 6.235987 139.999893
29 139.999893 0.000060 -0.000060 -3.929730 -2.802454 3.855576 139.999893
[Rope2_Seg09]
28 121.338966 0.000089 -0.000060 136.879395 0.546403 -1.506368 121.338966
29 121.338966 0.000089 -0.000060 136.879395 0.546403 -1.506368 121.338966
[R_mid_hand01]
28 104.680779 11.144459 -10.335981 -38.620117 30.064602 34.822517 105.778534
29 104.680779 11.144459 -10.335981 -39.086617 29.408760 33.883232 105.778534
[R_mid_hand02]
28 104.070427 2.443552 8.231699 71.221664 -39.603447 12.765275 104.424065
29 104.070427 2.443552 8.231699 71.497040 -38.602623 12.329556 104.424065
[R_mid_hand03]
28 106.028137 -11.221827 -5.996406 -169.274506 11.687644 -44.202797 106.788818
29 106.028137 -11.221827 -5.996406 -169.058868 11.488592 -43.146851 106.788818
[spine02]
28 129.756927 0.001550 0.000119 0.335805 -7.059903 -10.362702 129.756927
29 129.756927 0.001550 0.000119 0.360042 -6.003779 -11.257621 129.756927
[spine03]
28 78.614044 0.081497 -4.899007 1.905913 3.828336 16.608337 78.766579
29 78.614044 0.081492 -4.899007 1.898502 3.830294 16.533102 78.766579
[pelvis]
28 169.435242 0.051022 0.000000 -0.060622 -0.180173 14.187603 169.435257
29 169.435242 0.051022 0.000000 -0.060555 -0.180195 14.145239 169.435257
[null_rope03_connect]
28 -1.257226 -2.466202 137.391083 93.218567 -64.155746 -14.988704 137.418976
29 -1.257226 -2.466202 137.391083 93.543571 -74.361588 -19.529772 137.418976
[null_rope04_connect]
28 -1.259640 -2.480268 -137.844437 93.218567 -64.155746 -14.988704 137.872513
29 -1.259640 -2.480268 -137.844437 93.543571 -74.361588 -19.529772 137.872513
[Rope3_Seg01]
28 0.000000 0.000000 0.000000 -122.169724 6.819041 -39.684311 0.000000
29 0.000000 0.000000 0.000000 -122.366051 14.626215 -49.452740 0.000000
[Rope3_Seg02]
28 139.999924 -0.000119 0.000060 0.516753 -2.611839 -3.057820 139.999924
29 139.999924 -0.000119 0.000060 -0.676275 1.259830 -1.375834 139.999924
[Rope3_Seg03]
28 139.999924 -0.000119 0.000119 1.195933 -2.628214 -1.594088 139.999924
29 139.999924 -0.000119 0.000119 -0.580050 1.472469 -0.619085 139.999924
[Rope3_Seg04]
28 139.999924 0.000119 0.000000 3.533854 -2.605743 4.262854 139.999924
29 139.999924 0.000119 0.000000 0.073688 2.790541 4.174830 139.999924
[Rope3_Seg05]
28 139.999924 -0.000238 0.000060 -5.674093 -3.708992 -15.484193 139.999924
29 139.999924 -0.000238 0.000060 -1.455454 -0.837348 -9.008915 139.999924
[Rope3_Seg06]
28 139.999893 -0.000119 -0.000060 -24.915699 -0.823368 -20.451311 139.999893
29 139.999893 -0.000119 -0.000060 -4.091144 -3.030874 -17.348719 139.999893
[Rope3_Seg07]
28 139.999771 0.000060 -0.000119 -20.304260 2.954410 -7.744522 139.999771
29 139.999771 0.000060 -0.000119 -4.147344 -0.683455 -9.029756 139.999771
[Rope3_Seg08]
28 139.999985 -0.000060 0.000000 -12.695183 2.812246 -3.288244 139.999985
29 139.999985 -0.000060 0.000000 -3.039590 0.033021 -4.972917 139.999985
[Rope3_Seg09]
28 90.185997 -0.000179 -0.000060 159.792526 -1.358243 -0.846482 90.185997
29 90.185997 -0.000179 -0.000060 159.792526 -1.358243 -0.846482 90.185997
[R_rear_hand01]
28 103.366196 -6.073594 -10.757982 -177.714203 24.565960 -73.910950 104.101845
29 103.366196 -6.073594 -10.757982 -177.714203 24.565960 -73.910950 104.101845
[R_rear_hand02]
28 100.509819 12.039542 -7.992327 -12.874829 36.868488 72.167213 101.543350
29 100.509819 12.039542 -7.992327 -12.874829 36.868488 72.167213 101.543350
[R_rear_hand03]
28 101.539970 5.215704 5.435467 71.484581 -71.816628 21.513813 101.819031
29 101.539970 5.215704 5.435467 71.484581 -71.816628 21.513813 101.819031
[Rope4_Seg01]
28 -0.000010 -0.000008 -0.000153 29.715975 0.444605 -38.031311 0.000153
29 -0.000010 -0.000005 -0.000153 49.426678 9.613271 -56.971642 0.000153
[Rope4_Seg02]
28 139.999985 0.000060 0.000119 14.550561 5.736971 -6.073431 139.999985
29 139.999985 0.000060 0.000119 7.390134 -1.399671 -9.859596 139.999985
[Rope4_Seg03]
28 139.999924 0.000000 -0.000238 36.702663 13.213980 -18.610741 139.999924
29 139.999924 0.000000 -0.000238 8.615573 -4.033252 -16.319416 139.999924
[Rope4_Seg04]
28 139.999985 0.000000 0.000119 17.015221 -13.690182 -26.848459 139.999985
29 139.999985 0.000000 0.000119 5.046169 -7.369847 -16.113674 139.999985
[Rope4_Seg05]
28 139.999802 -0.000060 -0.000119 -5.212159 -14.917142 4.544729 139.999802
29 139.999802 -0.000060 -0.000119 -0.114812 -2.238934 -0.114845 139.999802
[Rope4_Seg06]
28 139.999924 0.000000 0.000060 -0.395982 -6.752115 -1.069905 139.999924
29 139.999924 0.000000 0.000060 0.266557 -1.824443 -1.723951 139.999924
[Rope4_Seg07]
28 139.999802 0.000000 0.000000 0.018321 -2.154725 -0.359799 139.999802
29 139.999802 0.000000 0.000000 0.228032 -1.266988 -1.237382 139.999802
[Rope4_Seg08]
28 139.999924 0.000000 0.000119 -1.447465 0.001674 0.001632 139.999924
29 139.999924 0.000000 0.000119 -1.425932 -0.458871 -0.442728 139.999924
[Rope4_Seg09]
28 90.185791 0.000060 0.000060 -135.617828 2.228885 0.850567 90.185791
29 90.185791 0.000060 0.000060 -135.617828 2.228885 0.850567 90.185791
[L_rear_hand01]
28 101.696655 -8.392275 -7.654577 -19.915020 -33.950905 119.950104 102.329041
29 101.696655 -8.392275 -7.654577 -19.915020 -33.950905 119.950104 102.329041
[L_rear_hand02]
28 102.726799 -1.568258 5.773216 77.862221 61.878510 165.399200 102.900848
29 102.726799 -1.568258 5.773216 77.862221 61.878510 165.399200 102.900848
[L_rear_hand03]
28 104.552910 9.721220 -10.420293 -173.099182 -23.740307 -117.327896 105.519653
29 104.552910 9.721220 -10.420293 -173.099182 -23.740307 -117.327896 105.519653
